# xmcd
#
# Track frame offsets: 
#        150
#        16998
#        36348
#        50145
#        67548
#        79923
#        95148
#        114348
#        129348
#        144873
#        155223
#        169545
#
# Disc length: 2543 seconds
#
# Revision: 0
# Processed by: cddbd v1.4PL0 Copyright (c) Steve Scherf et al.
# Submitted via: ExactAudioCopy v0.90b4
#
DISCID=9909ed0c
DTITLE=The Bellamy Brothers - Merry Christmas And A Hppy NewYear
DYEAR=1998
DGENRE=Country
TTITLE0=Merry Christmas And A Happy New Year
TTITLE1=Our Love Is Like Christmas
TTITLE2=A Cowboy's Holiday (Jingle Bells)
TTITLE3=Light Up The Candles
TTITLE4=White Christmas
TTITLE5=Rudolph, The Red-Nosed Reindeer
TTITLE6=We All Get Crazy At Christmas
TTITLE7=Old Hippie Christmas
TTITLE8=Tropical Christmas
TTITLE9=Rockin' Around The Christmas Tree
TTITLE10=It's So Close To Christmas (And I Am So Far From Home)
TTITLE11=Silent Night
EXTD=
EXTT0=
EXTT1=
EXTT2=
EXTT3=
EXTT4=
EXTT5=
EXTT6=
EXTT7=
EXTT8=
EXTT9=
EXTT10=
EXTT11=
PLAYORDER=
